<svg width="252" height="13" viewBox="0 0 252 13" fill="none" xmlns="http://www.w3.org/2000/svg">
<path fill-rule="evenodd" clip-rule="evenodd" d="M12.7909 9.68344C11.5014 8.3223 8.87331 8.28343 7.48449 9.60495L5.37152 11.6155C4.32533 12.611 2.43582 12.7732 1.15118 11.9777C-0.133466 11.1822 -0.326768 9.73034 0.719423 8.73485L2.83239 6.72427C6.71089 3.03372 14.0503 3.14229 17.6512 6.94346L17.7615 7.0599C19.0544 8.4247 21.7217 8.3922 22.991 6.99618C26.6133 3.01236 34.211 2.90346 37.9412 6.76557C39.2306 8.10055 41.9172 8.06913 43.1992 6.65912C46.7991 2.69991 54.3975 2.47337 58.217 6.3172L58.4113 6.51277C59.7058 7.81544 62.291 7.74774 63.4994 6.37953C67.0562 2.35225 74.679 2.22092 78.4047 6.0783C79.6871 7.40608 82.3283 7.36185 83.569 5.98417C87.1531 2.00424 94.7692 1.84635 98.4885 5.7345C99.7381 7.04079 102.385 7.02127 103.654 5.62544C107.266 1.65239 114.914 1.48746 118.681 5.35025C120.001 6.70401 122.66 6.63701 123.883 5.26546C127.446 1.27091 135.017 1.09908 138.786 4.92727L138.925 5.06847C140.226 6.39032 142.84 6.33099 144.071 4.9517C147.649 0.939495 155.265 0.799259 159.001 4.6673C160.288 5.99968 162.927 5.95662 164.176 4.57059C167.764 0.585703 175.374 0.444253 179.089 4.32761C180.333 5.62754 182.987 5.612 184.263 4.20956C187.858 0.255379 195.497 0.0761861 199.239 3.95017C200.535 5.29206 203.164 5.23107 204.375 3.8733C207.955 -0.140626 215.566 -0.232751 219.276 3.60883C220.57 4.94829 223.242 4.90631 224.496 3.52684C228.141 -0.481747 235.82 -0.552733 239.552 3.31066C240.903 4.70934 243.618 4.68793 244.938 3.34097L246.569 1.67668C247.57 0.654482 249.452 0.442629 250.772 1.20349C252.092 1.96435 252.35 3.4098 251.348 4.432L249.718 6.09629C245.921 9.97134 238.398 9.88828 234.724 6.08456C233.396 4.70954 230.663 4.76145 229.403 6.14782C225.791 10.1198 218.173 10.2395 214.448 6.38273C213.152 5.04084 210.523 5.10182 209.312 6.45959C205.733 10.4735 198.122 10.5656 194.411 6.72407C193.134 5.40185 190.439 5.43326 189.169 6.83055C185.592 10.7644 177.975 10.9839 174.245 7.08464C172.972 5.7543 170.343 5.79133 169.097 7.17431C165.509 11.1587 157.907 11.3072 154.173 7.4412C152.879 6.10102 150.243 6.15283 149.008 7.53798C145.451 11.5261 137.892 11.6976 134.129 7.87563L133.99 7.73442C132.683 6.40638 130.056 6.46598 128.82 7.85175C125.232 11.8755 117.609 11.9755 113.869 8.14086C112.56 6.79794 109.839 6.83978 108.56 8.24643C104.977 12.1869 97.3683 12.3844 93.6444 8.49152C92.3764 7.16598 89.7406 7.19996 88.4907 8.58789C84.9069 12.5675 77.3029 12.7101 73.5768 8.8522C72.2868 7.51663 69.6632 7.57728 68.4524 8.94821C64.9327 12.9335 57.4025 13.1307 53.6321 9.3363L53.4377 9.14073C52.1119 7.80651 49.4046 7.85121 48.1054 9.28011C44.4981 13.2474 36.8669 13.4258 33.1133 9.53947C31.8085 8.18853 29.1565 8.23215 27.8971 9.61717C24.2573 13.6204 16.6087 13.7136 12.9012 9.79988L12.7909 9.68344Z" fill="#DB4A2B"/>
</svg>
