<svg width="484" height="17" viewBox="0 0 484 17" fill="none" xmlns="http://www.w3.org/2000/svg">
<path fill-rule="evenodd" clip-rule="evenodd" d="M24.6431 13.5986C22.1911 12.2577 17.1495 12.261 14.4637 13.6051L10.3776 15.6502C8.35446 16.6627 4.72669 16.8552 2.27478 16.0801C-0.177144 15.305 -0.524729 13.8558 1.49842 12.8433L5.58454 10.7982C13.0849 7.04447 27.1643 7.03539 34.0119 10.7799L34.2217 10.8946C36.6803 12.239 41.7982 12.1638 44.2559 10.747C51.2693 6.704 65.8478 6.47324 72.9426 10.2766C75.3949 11.5913 80.5499 11.5168 83.0322 10.0858C90.0023 6.06781 104.584 5.71937 111.85 9.50303L112.22 9.69554C114.683 10.9778 119.644 10.8687 121.984 9.48069C128.873 5.39525 143.499 5.14167 150.586 8.94039C153.025 10.248 158.093 10.1614 160.495 8.76343C167.435 4.72491 182.05 4.44487 189.123 8.27447C191.5 9.5611 196.578 9.49913 199.035 8.08256C206.03 4.05048 220.706 3.76288 227.87 7.56635C230.381 8.89933 235.483 8.78968 237.852 7.39814C244.751 3.34535 259.281 3.05206 266.449 6.8209L266.714 6.95992C269.189 8.26128 274.206 8.16001 276.588 6.7606C283.518 2.6899 298.133 2.42751 305.238 6.23673C307.686 7.54885 312.75 7.46346 315.167 6.05703C322.116 2.01349 336.719 1.74998 343.784 5.57487C346.149 6.85522 351.242 6.79711 353.711 5.37384C360.673 1.3609 375.332 1.05916 382.449 4.87424C384.914 6.19572 389.959 6.09256 392.304 4.715C399.237 0.642551 413.84 0.42837 420.897 4.21153C423.358 5.53063 428.485 5.44579 430.914 4.04582C437.971 -0.0223257 452.705 -0.216457 459.802 3.58818C462.372 4.96559 467.582 4.90064 470.136 3.53214L473.291 1.84124C475.229 0.802702 478.842 0.560618 481.362 1.30053C483.882 2.04044 484.354 3.48216 482.416 4.5207L479.261 6.2116C471.915 10.1486 457.483 10.1862 450.495 6.44027C447.969 5.08616 442.725 5.18191 440.285 6.58887C433.292 10.6199 418.675 10.8617 411.59 7.06362C409.125 5.74213 404.08 5.84529 401.735 7.22285C394.802 11.2953 380.199 11.5095 373.142 7.72632C370.713 6.42421 365.542 6.49884 363.082 7.91689C356.157 11.9092 341.539 12.2509 334.446 8.41033C332.025 7.10002 326.98 7.17923 324.568 8.58257C317.62 12.6256 303.033 12.896 295.931 9.08882C293.469 7.76902 288.412 7.8631 286.02 9.26845C279.132 13.3147 264.625 13.6075 257.468 9.84475L257.204 9.70573C254.717 8.39828 249.676 8.50001 247.283 9.90598C240.333 13.9884 225.707 14.2106 218.594 10.4349C216.103 9.11259 210.882 9.19807 208.406 10.6256C201.469 14.6246 186.867 14.9442 179.785 11.1099C177.374 9.80435 172.316 9.8806 169.896 11.289C162.956 15.3272 148.365 15.5917 141.278 11.7925C138.825 10.4772 133.79 10.5799 131.445 11.9707C124.629 16.0135 110.178 16.3315 103.005 12.5965L102.636 12.404C100.113 11.0906 94.9184 11.1788 92.4029 12.6289C85.4185 16.6552 70.7747 16.956 63.6354 13.1287C61.1537 11.7983 56.0649 11.8845 53.6266 13.2901C46.5791 17.3527 31.9032 17.5686 24.8529 13.7133L24.6431 13.5986Z" fill="#DB4A2B"/>
</svg>
